G04 Layer: BottomPasteMaskLayer*
G04 EasyEDA v6.2.46, 2019-11-23T13:25:43+01:00*
G04 d8a7f896a94247d8beab61903426e2c7,093294e231294aec929f11af430ff8d8,10*
G04 Gerber Generator version 0.2*
G04 Scale: 100 percent, Rotated: No, Reflected: No *
G04 Dimensions in millimeters *
G04 leading zeros omitted , absolute positions ,3 integer and 3 decimal *
%FSLAX33Y33*%
%MOMM*%
G90*
G71D02*

%ADD13C,2.999994*%

%LPD*%
G54D13*
G01X2750Y29250D03*
G01X2750Y10250D03*
G01X2750Y37500D03*
G01X16000Y2000D03*
G01X35000Y2000D03*
G01X54000Y2000D03*
G01X69250Y2000D03*
G36*
G01X17000Y23148D02*
G01X17000Y24748D01*
G01X15000Y24748D01*
G01X15000Y23148D01*
G01X17000Y23148D01*
G37*
G36*
G01X17000Y26450D02*
G01X17000Y28050D01*
G01X15000Y28050D01*
G01X15000Y26450D01*
G01X17000Y26450D01*
G37*
G36*
G01X36000Y23148D02*
G01X36000Y24748D01*
G01X34000Y24748D01*
G01X34000Y23148D01*
G01X36000Y23148D01*
G37*
G36*
G01X36000Y26450D02*
G01X36000Y28050D01*
G01X34000Y28050D01*
G01X34000Y26450D01*
G01X36000Y26450D01*
G37*
G36*
G01X55000Y23148D02*
G01X55000Y24748D01*
G01X53000Y24748D01*
G01X53000Y23148D01*
G01X55000Y23148D01*
G37*
G36*
G01X55000Y26450D02*
G01X55000Y28050D01*
G01X53000Y28050D01*
G01X53000Y26450D01*
G01X55000Y26450D01*
G37*
G36*
G01X17000Y4148D02*
G01X17000Y5748D01*
G01X15000Y5748D01*
G01X15000Y4148D01*
G01X17000Y4148D01*
G37*
G36*
G01X17000Y7450D02*
G01X17000Y9050D01*
G01X15000Y9050D01*
G01X15000Y7450D01*
G01X17000Y7450D01*
G37*
G36*
G01X36000Y4148D02*
G01X36000Y5748D01*
G01X34000Y5748D01*
G01X34000Y4148D01*
G01X36000Y4148D01*
G37*
G36*
G01X36000Y7450D02*
G01X36000Y9050D01*
G01X34000Y9050D01*
G01X34000Y7450D01*
G01X36000Y7450D01*
G37*
G36*
G01X55000Y4148D02*
G01X55000Y5748D01*
G01X53000Y5748D01*
G01X53000Y4148D01*
G01X55000Y4148D01*
G37*
G36*
G01X55000Y7450D02*
G01X55000Y9050D01*
G01X53000Y9050D01*
G01X53000Y7450D01*
G01X55000Y7450D01*
G37*
G36*
G01X71000Y3950D02*
G01X71000Y5750D01*
G01X69000Y5750D01*
G01X69000Y3950D01*
G01X71000Y3950D01*
G37*
G36*
G01X71000Y7350D02*
G01X71000Y9150D01*
G01X69000Y9150D01*
G01X69000Y7350D01*
G01X71000Y7350D01*
G37*
G36*
G01X52000Y3950D02*
G01X52000Y5750D01*
G01X50000Y5750D01*
G01X50000Y3950D01*
G01X52000Y3950D01*
G37*
G36*
G01X52000Y7350D02*
G01X52000Y9150D01*
G01X50000Y9150D01*
G01X50000Y7350D01*
G01X52000Y7350D01*
G37*
G36*
G01X33000Y3950D02*
G01X33000Y5750D01*
G01X31000Y5750D01*
G01X31000Y3950D01*
G01X33000Y3950D01*
G37*
G36*
G01X33000Y7350D02*
G01X33000Y9150D01*
G01X31000Y9150D01*
G01X31000Y7350D01*
G01X33000Y7350D01*
G37*
G36*
G01X14000Y3950D02*
G01X14000Y5750D01*
G01X12000Y5750D01*
G01X12000Y3950D01*
G01X14000Y3950D01*
G37*
G36*
G01X14000Y7350D02*
G01X14000Y9150D01*
G01X12000Y9150D01*
G01X12000Y7350D01*
G01X14000Y7350D01*
G37*
G36*
G01X71000Y22950D02*
G01X71000Y24750D01*
G01X69000Y24750D01*
G01X69000Y22950D01*
G01X71000Y22950D01*
G37*
G36*
G01X71000Y26350D02*
G01X71000Y28150D01*
G01X69000Y28150D01*
G01X69000Y26350D01*
G01X71000Y26350D01*
G37*
G36*
G01X52000Y22950D02*
G01X52000Y24750D01*
G01X50000Y24750D01*
G01X50000Y22950D01*
G01X52000Y22950D01*
G37*
G36*
G01X52000Y26350D02*
G01X52000Y28150D01*
G01X50000Y28150D01*
G01X50000Y26350D01*
G01X52000Y26350D01*
G37*
G36*
G01X33000Y22950D02*
G01X33000Y24750D01*
G01X31000Y24750D01*
G01X31000Y22950D01*
G01X33000Y22950D01*
G37*
G36*
G01X33000Y26350D02*
G01X33000Y28150D01*
G01X31000Y28150D01*
G01X31000Y26350D01*
G01X33000Y26350D01*
G37*
G36*
G01X14000Y22950D02*
G01X14000Y24750D01*
G01X12000Y24750D01*
G01X12000Y22950D01*
G01X14000Y22950D01*
G37*
G36*
G01X14000Y26350D02*
G01X14000Y28150D01*
G01X12000Y28150D01*
G01X12000Y26350D01*
G01X14000Y26350D01*
G37*
G36*
G01X71000Y41950D02*
G01X71000Y43750D01*
G01X69000Y43750D01*
G01X69000Y41950D01*
G01X71000Y41950D01*
G37*
G36*
G01X71000Y45350D02*
G01X71000Y47150D01*
G01X69000Y47150D01*
G01X69000Y45350D01*
G01X71000Y45350D01*
G37*
G36*
G01X52000Y41950D02*
G01X52000Y43750D01*
G01X50000Y43750D01*
G01X50000Y41950D01*
G01X52000Y41950D01*
G37*
G36*
G01X52000Y45350D02*
G01X52000Y47150D01*
G01X50000Y47150D01*
G01X50000Y45350D01*
G01X52000Y45350D01*
G37*
G36*
G01X33000Y41950D02*
G01X33000Y43750D01*
G01X31000Y43750D01*
G01X31000Y41950D01*
G01X33000Y41950D01*
G37*
G36*
G01X33000Y45350D02*
G01X33000Y47150D01*
G01X31000Y47150D01*
G01X31000Y45350D01*
G01X33000Y45350D01*
G37*
G36*
G01X14000Y41950D02*
G01X14000Y43750D01*
G01X12000Y43750D01*
G01X12000Y41950D01*
G01X14000Y41950D01*
G37*
G36*
G01X14000Y45350D02*
G01X14000Y47150D01*
G01X12000Y47150D01*
G01X12000Y45350D01*
G01X14000Y45350D01*
G37*
M00*
M02*
