G04 Layer: TopSilkLayer*
G04 EasyEDA v6.2.46, 2019-11-23T13:25:43+01:00*
G04 d8a7f896a94247d8beab61903426e2c7,093294e231294aec929f11af430ff8d8,10*
G04 Gerber Generator version 0.2*
G04 Scale: 100 percent, Rotated: No, Reflected: No *
G04 Dimensions in millimeters *
G04 leading zeros omitted , absolute positions ,3 integer and 3 decimal *
%FSLAX33Y33*%
%MOMM*%
G90*
G71D02*

%ADD10C,0.254000*%
%ADD16C,0.152400*%

%LPD*%
G54D10*
G01X17754Y49248D02*
G01X33248Y49248D01*
G01X33248Y33754D01*
G01X17754Y33754D01*
G01X17754Y49248D01*
G01X36753Y49248D02*
G01X52247Y49248D01*
G01X52247Y33754D01*
G01X36753Y33754D01*
G01X36753Y49248D01*
G01X55753Y49248D02*
G01X71247Y49248D01*
G01X71247Y33754D01*
G01X55753Y33754D01*
G01X55753Y49248D01*
G01X17754Y30246D02*
G01X33248Y30246D01*
G01X33248Y14752D01*
G01X17754Y14752D01*
G01X17754Y30246D01*
G01X36753Y30246D02*
G01X52247Y30246D01*
G01X52247Y14752D01*
G01X36753Y14752D01*
G01X36753Y30246D01*
G01X55753Y30246D02*
G01X71247Y30246D01*
G01X71247Y14752D01*
G01X55753Y14752D01*
G01X55753Y30246D01*
G01X17754Y11247D02*
G01X33248Y11247D01*
G01X33248Y-4246D01*
G01X17754Y-4246D01*
G01X17754Y11247D01*
G01X36753Y11247D02*
G01X52247Y11247D01*
G01X52247Y-4246D01*
G01X36753Y-4246D01*
G01X36753Y11247D01*
G01X55753Y11247D02*
G01X71247Y11247D01*
G01X71247Y-4246D01*
G01X55753Y-4246D01*
G01X55753Y11247D01*
G01X-1247Y49248D02*
G01X14246Y49248D01*
G01X14246Y33754D01*
G01X-1247Y33754D01*
G01X-1247Y49248D01*
G01X-1247Y30246D02*
G01X14246Y30246D01*
G01X14246Y14752D01*
G01X-1247Y14752D01*
G01X-1247Y30246D01*
G01X-1247Y11247D02*
G01X14246Y11247D01*
G01X14246Y-4246D01*
G01X-1247Y-4246D01*
G01X-1247Y11247D01*
G54D16*
G01X26228Y53129D02*
G01X26123Y53233D01*
G01X25968Y53286D01*
G01X25760Y53286D01*
G01X25605Y53233D01*
G01X25501Y53129D01*
G01X25501Y53025D01*
G01X25552Y52920D01*
G01X25605Y52870D01*
G01X25709Y52819D01*
G01X26022Y52715D01*
G01X26123Y52661D01*
G01X26177Y52611D01*
G01X26228Y52506D01*
G01X26228Y52349D01*
G01X26123Y52247D01*
G01X25968Y52194D01*
G01X25760Y52194D01*
G01X25605Y52247D01*
G01X25501Y52349D01*
G01X26570Y53286D02*
G01X26832Y52194D01*
G01X27091Y53286D02*
G01X26832Y52194D01*
G01X27091Y53286D02*
G01X27350Y52194D01*
G01X27609Y53286D02*
G01X27350Y52194D01*
G01X28006Y53025D02*
G01X28006Y53078D01*
G01X28056Y53182D01*
G01X28110Y53233D01*
G01X28214Y53286D01*
G01X28422Y53286D01*
G01X28524Y53233D01*
G01X28577Y53182D01*
G01X28628Y53078D01*
G01X28628Y52974D01*
G01X28577Y52870D01*
G01X28473Y52715D01*
G01X27952Y52194D01*
G01X28681Y52194D01*
G01X45227Y53129D02*
G01X45123Y53233D01*
G01X44968Y53286D01*
G01X44759Y53286D01*
G01X44604Y53233D01*
G01X44500Y53129D01*
G01X44500Y53025D01*
G01X44551Y52920D01*
G01X44604Y52870D01*
G01X44709Y52819D01*
G01X45021Y52715D01*
G01X45123Y52661D01*
G01X45176Y52611D01*
G01X45227Y52506D01*
G01X45227Y52349D01*
G01X45123Y52247D01*
G01X44968Y52194D01*
G01X44759Y52194D01*
G01X44604Y52247D01*
G01X44500Y52349D01*
G01X45570Y53286D02*
G01X45831Y52194D01*
G01X46090Y53286D02*
G01X45831Y52194D01*
G01X46090Y53286D02*
G01X46349Y52194D01*
G01X46609Y53286D02*
G01X46349Y52194D01*
G01X47056Y53286D02*
G01X47627Y53286D01*
G01X47317Y52870D01*
G01X47472Y52870D01*
G01X47576Y52819D01*
G01X47627Y52765D01*
G01X47680Y52611D01*
G01X47680Y52506D01*
G01X47627Y52349D01*
G01X47523Y52247D01*
G01X47368Y52194D01*
G01X47213Y52194D01*
G01X47056Y52247D01*
G01X47005Y52298D01*
G01X46951Y52402D01*
G01X64226Y53129D02*
G01X64122Y53233D01*
G01X63967Y53286D01*
G01X63759Y53286D01*
G01X63604Y53233D01*
G01X63500Y53129D01*
G01X63500Y53025D01*
G01X63550Y52920D01*
G01X63604Y52870D01*
G01X63708Y52819D01*
G01X64020Y52715D01*
G01X64122Y52661D01*
G01X64175Y52611D01*
G01X64226Y52506D01*
G01X64226Y52349D01*
G01X64122Y52247D01*
G01X63967Y52194D01*
G01X63759Y52194D01*
G01X63604Y52247D01*
G01X63500Y52349D01*
G01X64569Y53286D02*
G01X64830Y52194D01*
G01X65090Y53286D02*
G01X64830Y52194D01*
G01X65090Y53286D02*
G01X65349Y52194D01*
G01X65608Y53286D02*
G01X65349Y52194D01*
G01X66471Y53286D02*
G01X65951Y52557D01*
G01X66730Y52557D01*
G01X66471Y53286D02*
G01X66471Y52194D01*
G01X26228Y34127D02*
G01X26123Y34231D01*
G01X25968Y34284D01*
G01X25760Y34284D01*
G01X25605Y34231D01*
G01X25501Y34127D01*
G01X25501Y34023D01*
G01X25552Y33919D01*
G01X25605Y33868D01*
G01X25709Y33817D01*
G01X26022Y33713D01*
G01X26123Y33660D01*
G01X26177Y33609D01*
G01X26228Y33505D01*
G01X26228Y33347D01*
G01X26123Y33246D01*
G01X25968Y33192D01*
G01X25760Y33192D01*
G01X25605Y33246D01*
G01X25501Y33347D01*
G01X26570Y34284D02*
G01X26832Y33192D01*
G01X27091Y34284D02*
G01X26832Y33192D01*
G01X27091Y34284D02*
G01X27350Y33192D01*
G01X27609Y34284D02*
G01X27350Y33192D01*
G01X28577Y34127D02*
G01X28524Y34231D01*
G01X28369Y34284D01*
G01X28265Y34284D01*
G01X28110Y34231D01*
G01X28006Y34076D01*
G01X27952Y33817D01*
G01X27952Y33555D01*
G01X28006Y33347D01*
G01X28110Y33246D01*
G01X28265Y33192D01*
G01X28318Y33192D01*
G01X28473Y33246D01*
G01X28577Y33347D01*
G01X28628Y33505D01*
G01X28628Y33555D01*
G01X28577Y33713D01*
G01X28473Y33817D01*
G01X28318Y33868D01*
G01X28265Y33868D01*
G01X28110Y33817D01*
G01X28006Y33713D01*
G01X27952Y33555D01*
G01X45227Y34127D02*
G01X45123Y34231D01*
G01X44968Y34284D01*
G01X44759Y34284D01*
G01X44604Y34231D01*
G01X44500Y34127D01*
G01X44500Y34023D01*
G01X44551Y33919D01*
G01X44604Y33868D01*
G01X44709Y33817D01*
G01X45021Y33713D01*
G01X45123Y33660D01*
G01X45176Y33609D01*
G01X45227Y33505D01*
G01X45227Y33347D01*
G01X45123Y33246D01*
G01X44968Y33192D01*
G01X44759Y33192D01*
G01X44604Y33246D01*
G01X44500Y33347D01*
G01X45570Y34284D02*
G01X45831Y33192D01*
G01X46090Y34284D02*
G01X45831Y33192D01*
G01X46090Y34284D02*
G01X46349Y33192D01*
G01X46609Y34284D02*
G01X46349Y33192D01*
G01X47680Y34284D02*
G01X47160Y33192D01*
G01X46951Y34284D02*
G01X47680Y34284D01*
G01X64226Y34127D02*
G01X64122Y34231D01*
G01X63967Y34284D01*
G01X63759Y34284D01*
G01X63604Y34231D01*
G01X63500Y34127D01*
G01X63500Y34023D01*
G01X63550Y33919D01*
G01X63604Y33868D01*
G01X63708Y33817D01*
G01X64020Y33713D01*
G01X64122Y33660D01*
G01X64175Y33609D01*
G01X64226Y33505D01*
G01X64226Y33347D01*
G01X64122Y33246D01*
G01X63967Y33192D01*
G01X63759Y33192D01*
G01X63604Y33246D01*
G01X63500Y33347D01*
G01X64569Y34284D02*
G01X64830Y33192D01*
G01X65090Y34284D02*
G01X64830Y33192D01*
G01X65090Y34284D02*
G01X65349Y33192D01*
G01X65608Y34284D02*
G01X65349Y33192D01*
G01X66212Y34284D02*
G01X66055Y34231D01*
G01X66004Y34127D01*
G01X66004Y34023D01*
G01X66055Y33919D01*
G01X66159Y33868D01*
G01X66367Y33817D01*
G01X66522Y33764D01*
G01X66626Y33660D01*
G01X66680Y33555D01*
G01X66680Y33401D01*
G01X66626Y33296D01*
G01X66575Y33246D01*
G01X66421Y33192D01*
G01X66212Y33192D01*
G01X66055Y33246D01*
G01X66004Y33296D01*
G01X65951Y33401D01*
G01X65951Y33555D01*
G01X66004Y33660D01*
G01X66108Y33764D01*
G01X66263Y33817D01*
G01X66471Y33868D01*
G01X66575Y33919D01*
G01X66626Y34023D01*
G01X66626Y34127D01*
G01X66575Y34231D01*
G01X66421Y34284D01*
G01X66212Y34284D01*
G01X26228Y15128D02*
G01X26123Y15232D01*
G01X25968Y15285D01*
G01X25760Y15285D01*
G01X25605Y15232D01*
G01X25501Y15128D01*
G01X25501Y15024D01*
G01X25552Y14919D01*
G01X25605Y14869D01*
G01X25709Y14818D01*
G01X26022Y14714D01*
G01X26123Y14660D01*
G01X26177Y14610D01*
G01X26228Y14505D01*
G01X26228Y14348D01*
G01X26123Y14246D01*
G01X25968Y14193D01*
G01X25760Y14193D01*
G01X25605Y14246D01*
G01X25501Y14348D01*
G01X26570Y15285D02*
G01X26832Y14193D01*
G01X27091Y15285D02*
G01X26832Y14193D01*
G01X27091Y15285D02*
G01X27350Y14193D01*
G01X27609Y15285D02*
G01X27350Y14193D01*
G01X27952Y15077D02*
G01X28056Y15128D01*
G01X28214Y15285D01*
G01X28214Y14193D01*
G01X28867Y15285D02*
G01X28712Y15232D01*
G01X28608Y15077D01*
G01X28557Y14818D01*
G01X28557Y14660D01*
G01X28608Y14401D01*
G01X28712Y14246D01*
G01X28867Y14193D01*
G01X28971Y14193D01*
G01X29128Y14246D01*
G01X29232Y14401D01*
G01X29283Y14660D01*
G01X29283Y14818D01*
G01X29232Y15077D01*
G01X29128Y15232D01*
G01X28971Y15285D01*
G01X28867Y15285D01*
G01X45227Y15128D02*
G01X45123Y15232D01*
G01X44968Y15285D01*
G01X44759Y15285D01*
G01X44604Y15232D01*
G01X44500Y15128D01*
G01X44500Y15024D01*
G01X44551Y14919D01*
G01X44604Y14869D01*
G01X44709Y14818D01*
G01X45021Y14714D01*
G01X45123Y14660D01*
G01X45176Y14610D01*
G01X45227Y14505D01*
G01X45227Y14348D01*
G01X45123Y14246D01*
G01X44968Y14193D01*
G01X44759Y14193D01*
G01X44604Y14246D01*
G01X44500Y14348D01*
G01X45570Y15285D02*
G01X45831Y14193D01*
G01X46090Y15285D02*
G01X45831Y14193D01*
G01X46090Y15285D02*
G01X46349Y14193D01*
G01X46609Y15285D02*
G01X46349Y14193D01*
G01X46951Y15077D02*
G01X47056Y15128D01*
G01X47213Y15285D01*
G01X47213Y14193D01*
G01X47556Y15077D02*
G01X47660Y15128D01*
G01X47815Y15285D01*
G01X47815Y14193D01*
G01X64226Y15128D02*
G01X64122Y15232D01*
G01X63967Y15285D01*
G01X63759Y15285D01*
G01X63604Y15232D01*
G01X63500Y15128D01*
G01X63500Y15024D01*
G01X63550Y14919D01*
G01X63604Y14869D01*
G01X63708Y14818D01*
G01X64020Y14714D01*
G01X64122Y14660D01*
G01X64175Y14610D01*
G01X64226Y14505D01*
G01X64226Y14348D01*
G01X64122Y14246D01*
G01X63967Y14193D01*
G01X63759Y14193D01*
G01X63604Y14246D01*
G01X63500Y14348D01*
G01X64569Y15285D02*
G01X64830Y14193D01*
G01X65090Y15285D02*
G01X64830Y14193D01*
G01X65090Y15285D02*
G01X65349Y14193D01*
G01X65608Y15285D02*
G01X65349Y14193D01*
G01X65951Y15077D02*
G01X66055Y15128D01*
G01X66212Y15285D01*
G01X66212Y14193D01*
G01X66606Y15024D02*
G01X66606Y15077D01*
G01X66659Y15181D01*
G01X66710Y15232D01*
G01X66814Y15285D01*
G01X67022Y15285D01*
G01X67127Y15232D01*
G01X67177Y15181D01*
G01X67231Y15077D01*
G01X67231Y14973D01*
G01X67177Y14869D01*
G01X67073Y14714D01*
G01X66555Y14193D01*
G01X67282Y14193D01*
G01X7228Y52189D02*
G01X7124Y52293D01*
G01X6967Y52344D01*
G01X6761Y52344D01*
G01X6604Y52293D01*
G01X6499Y52189D01*
G01X6499Y52085D01*
G01X6553Y51981D01*
G01X6604Y51930D01*
G01X6708Y51876D01*
G01X7020Y51772D01*
G01X7124Y51722D01*
G01X7175Y51668D01*
G01X7228Y51567D01*
G01X7228Y51409D01*
G01X7124Y51305D01*
G01X6967Y51254D01*
G01X6761Y51254D01*
G01X6604Y51305D01*
G01X6499Y51409D01*
G01X7571Y52344D02*
G01X7830Y51254D01*
G01X8089Y52344D02*
G01X7830Y51254D01*
G01X8089Y52344D02*
G01X8348Y51254D01*
G01X8610Y52344D02*
G01X8348Y51254D01*
G01X8953Y52138D02*
G01X9057Y52189D01*
G01X9212Y52344D01*
G01X9212Y51254D01*
G01X7228Y33190D02*
G01X7124Y33294D01*
G01X6967Y33345D01*
G01X6761Y33345D01*
G01X6604Y33294D01*
G01X6499Y33190D01*
G01X6499Y33086D01*
G01X6553Y32981D01*
G01X6604Y32928D01*
G01X6708Y32877D01*
G01X7020Y32773D01*
G01X7124Y32722D01*
G01X7175Y32669D01*
G01X7228Y32565D01*
G01X7228Y32410D01*
G01X7124Y32306D01*
G01X6967Y32255D01*
G01X6761Y32255D01*
G01X6604Y32306D01*
G01X6499Y32410D01*
G01X7571Y33345D02*
G01X7830Y32255D01*
G01X8089Y33345D02*
G01X7830Y32255D01*
G01X8089Y33345D02*
G01X8348Y32255D01*
G01X8610Y33345D02*
G01X8348Y32255D01*
G01X9575Y33345D02*
G01X9057Y33345D01*
G01X9004Y32877D01*
G01X9057Y32928D01*
G01X9212Y32981D01*
G01X9367Y32981D01*
G01X9525Y32928D01*
G01X9629Y32826D01*
G01X9679Y32669D01*
G01X9679Y32565D01*
G01X9629Y32410D01*
G01X9525Y32306D01*
G01X9367Y32255D01*
G01X9212Y32255D01*
G01X9057Y32306D01*
G01X9004Y32357D01*
G01X8953Y32461D01*
G01X7228Y14188D02*
G01X7124Y14292D01*
G01X6967Y14345D01*
G01X6761Y14345D01*
G01X6604Y14292D01*
G01X6499Y14188D01*
G01X6499Y14084D01*
G01X6553Y13980D01*
G01X6604Y13929D01*
G01X6708Y13878D01*
G01X7020Y13774D01*
G01X7124Y13721D01*
G01X7175Y13670D01*
G01X7228Y13566D01*
G01X7228Y13408D01*
G01X7124Y13307D01*
G01X6967Y13253D01*
G01X6761Y13253D01*
G01X6604Y13307D01*
G01X6499Y13408D01*
G01X7571Y14345D02*
G01X7830Y13253D01*
G01X8089Y14345D02*
G01X7830Y13253D01*
G01X8089Y14345D02*
G01X8348Y13253D01*
G01X8610Y14345D02*
G01X8348Y13253D01*
G01X9629Y13980D02*
G01X9575Y13825D01*
G01X9471Y13721D01*
G01X9316Y13670D01*
G01X9263Y13670D01*
G01X9108Y13721D01*
G01X9004Y13825D01*
G01X8953Y13980D01*
G01X8953Y14033D01*
G01X9004Y14188D01*
G01X9108Y14292D01*
G01X9263Y14345D01*
G01X9316Y14345D01*
G01X9471Y14292D01*
G01X9575Y14188D01*
G01X9629Y13980D01*
G01X9629Y13721D01*
G01X9575Y13462D01*
G01X9471Y13307D01*
G01X9316Y13253D01*
G01X9212Y13253D01*
G01X9057Y13307D01*
G01X9004Y13408D01*
M00*
M02*
