;Layer: Drill PTH
;EasyEDA v6.2.46, 2019-11-23T13:25:43+01:00
;d8a7f896a94247d8beab61903426e2c7,093294e231294aec929f11af430ff8d8,10
;Gerber Generator version 0.2
M48
METRIC,LZ,000.000
;Holesize 1 = 1.200 METRIC
T01C1.200
%
G05
G90
T01
X+021691Y+044041
X+028041Y+046581
X+040690Y+044041
X+047040Y+046581
X+059690Y+044041
X+066040Y+046581
X+021691Y+025039
X+028041Y+027579
X+040690Y+025039
X+047040Y+027579
X+059690Y+025039
X+066040Y+027579
X+021691Y+006040
X+028041Y+008580
X+040690Y+006040
X+047040Y+008580
X+059690Y+006040
X+066040Y+008580
X+002689Y+044041
X+009039Y+046581
X+002689Y+025039
X+009039Y+027579
X+002689Y+006040
X+009039Y+008580
M30
