G04 Layer: BottomLayer*
G04 EasyEDA v6.2.46, 2019-11-23T13:25:43+01:00*
G04 d8a7f896a94247d8beab61903426e2c7,093294e231294aec929f11af430ff8d8,10*
G04 Gerber Generator version 0.2*
G04 Scale: 100 percent, Rotated: No, Reflected: No *
G04 Dimensions in millimeters *
G04 leading zeros omitted , absolute positions ,3 integer and 3 decimal *
%FSLAX33Y33*%
%MOMM*%
G90*
G71D02*

%ADD11C,2.499995*%
%ADD12C,0.399999*%
%ADD13C,2.999994*%

%LPD*%
G54D12*
G01X21691Y44041D02*
G01X21691Y44190D01*
G01X22001Y44500D01*
G01X40231Y44500D01*
G01X40690Y44041D01*
G01X2689Y44041D02*
G01X2689Y44190D01*
G01X2999Y44500D01*
G01X21231Y44500D01*
G01X21691Y44041D01*
G01X2689Y25039D02*
G01X2689Y25189D01*
G01X3002Y25501D01*
G01X21231Y25501D01*
G01X21691Y25039D01*
G01X40690Y44041D02*
G01X40690Y44190D01*
G01X41000Y44500D01*
G01X59230Y44500D01*
G01X59690Y44041D01*
G01X40690Y25039D02*
G01X40690Y25191D01*
G01X41000Y25501D01*
G01X59227Y25501D01*
G01X59690Y25039D01*
G01X21691Y25039D02*
G01X21691Y25191D01*
G01X22001Y25501D01*
G01X40231Y25501D01*
G01X40690Y25039D01*
G01X21691Y6040D02*
G01X21691Y6192D01*
G01X21998Y6499D01*
G01X40231Y6499D01*
G01X40690Y6040D01*
G01X2689Y6040D02*
G01X2689Y6189D01*
G01X2999Y6499D01*
G01X21231Y6499D01*
G01X21691Y6040D01*
G01X40690Y6040D02*
G01X40690Y6189D01*
G01X41000Y6499D01*
G01X59230Y6499D01*
G01X59690Y6040D01*
G01X2750Y37500D02*
G01X2750Y43980D01*
G01X2690Y44040D01*
G01X2750Y29250D02*
G01X2750Y25100D01*
G01X2690Y25040D01*
G01X2750Y10250D02*
G01X2750Y6100D01*
G01X2690Y6040D01*
G01X35000Y2000D02*
G01X35000Y4948D01*
G01X35000Y4948D01*
G01X54000Y2000D02*
G01X54000Y2000D01*
G01X54000Y4948D01*
G01X69250Y2000D02*
G01X69250Y4600D01*
G01X9039Y46581D02*
G01X9370Y46250D01*
G01X13000Y46250D01*
G01X28041Y46581D02*
G01X28372Y46250D01*
G01X32000Y46250D01*
G01X47040Y46581D02*
G01X47371Y46250D01*
G01X51000Y46250D01*
G01X66040Y46581D02*
G01X66370Y46250D01*
G01X70000Y46250D01*
G01X70000Y23750D02*
G01X70000Y12401D01*
G01X72002Y10400D01*
G01X72002Y6750D01*
G01X70000Y4751D01*
G01X69999Y42849D02*
G01X69999Y31501D01*
G01X72001Y29499D01*
G01X72001Y25849D01*
G01X69999Y23850D01*
G01X66040Y27579D02*
G01X66368Y27250D01*
G01X70000Y27250D01*
G01X66040Y8580D02*
G01X66369Y8250D01*
G01X70000Y8250D01*
G01X47040Y27579D02*
G01X47369Y27250D01*
G01X51000Y27250D01*
G01X28041Y27579D02*
G01X28370Y27250D01*
G01X32000Y27250D01*
G01X9039Y27579D02*
G01X9368Y27250D01*
G01X13000Y27250D01*
G01X47040Y8580D02*
G01X47370Y8250D01*
G01X51000Y8250D01*
G01X28041Y8580D02*
G01X28371Y8250D01*
G01X32000Y8250D01*
G01X9039Y8580D02*
G01X9369Y8250D01*
G01X13000Y8250D01*
G01X13000Y42850D02*
G01X13000Y35000D01*
G01X16000Y32000D01*
G01X16000Y27250D01*
G01X32000Y42850D02*
G01X32000Y35000D01*
G01X35000Y32000D01*
G01X35000Y27250D01*
G01X51000Y42850D02*
G01X51000Y35000D01*
G01X54000Y32000D01*
G01X54000Y27250D01*
G01X13000Y23850D02*
G01X13098Y23948D01*
G01X16000Y23948D01*
G01X16000Y23948D02*
G01X16000Y8250D01*
G01X32000Y23850D02*
G01X32098Y23948D01*
G01X35000Y23948D01*
G01X35000Y23948D02*
G01X35000Y8250D01*
G01X51000Y23850D02*
G01X51098Y23948D01*
G01X54000Y23948D01*
G01X54000Y23948D02*
G01X54000Y8250D01*
G01X51000Y4850D02*
G01X51098Y4948D01*
G01X54000Y4948D01*
G01X32000Y4850D02*
G01X32098Y4948D01*
G01X35000Y4948D01*
G01X13000Y4850D02*
G01X13098Y4948D01*
G01X16000Y4948D01*
G54D13*
G01X2750Y29250D03*
G01X2750Y10250D03*
G01X2750Y37500D03*
G01X16000Y2000D03*
G01X35000Y2000D03*
G01X54000Y2000D03*
G01X69250Y2000D03*
G36*
G01X17000Y23148D02*
G01X17000Y24748D01*
G01X15000Y24748D01*
G01X15000Y23148D01*
G01X17000Y23148D01*
G37*
G36*
G01X17000Y26450D02*
G01X17000Y28050D01*
G01X15000Y28050D01*
G01X15000Y26450D01*
G01X17000Y26450D01*
G37*
G36*
G01X36000Y23148D02*
G01X36000Y24748D01*
G01X34000Y24748D01*
G01X34000Y23148D01*
G01X36000Y23148D01*
G37*
G36*
G01X36000Y26450D02*
G01X36000Y28050D01*
G01X34000Y28050D01*
G01X34000Y26450D01*
G01X36000Y26450D01*
G37*
G36*
G01X55000Y23148D02*
G01X55000Y24748D01*
G01X53000Y24748D01*
G01X53000Y23148D01*
G01X55000Y23148D01*
G37*
G36*
G01X55000Y26450D02*
G01X55000Y28050D01*
G01X53000Y28050D01*
G01X53000Y26450D01*
G01X55000Y26450D01*
G37*
G36*
G01X17000Y4148D02*
G01X17000Y5748D01*
G01X15000Y5748D01*
G01X15000Y4148D01*
G01X17000Y4148D01*
G37*
G36*
G01X17000Y7450D02*
G01X17000Y9050D01*
G01X15000Y9050D01*
G01X15000Y7450D01*
G01X17000Y7450D01*
G37*
G36*
G01X36000Y4148D02*
G01X36000Y5748D01*
G01X34000Y5748D01*
G01X34000Y4148D01*
G01X36000Y4148D01*
G37*
G36*
G01X36000Y7450D02*
G01X36000Y9050D01*
G01X34000Y9050D01*
G01X34000Y7450D01*
G01X36000Y7450D01*
G37*
G36*
G01X55000Y4148D02*
G01X55000Y5748D01*
G01X53000Y5748D01*
G01X53000Y4148D01*
G01X55000Y4148D01*
G37*
G36*
G01X55000Y7450D02*
G01X55000Y9050D01*
G01X53000Y9050D01*
G01X53000Y7450D01*
G01X55000Y7450D01*
G37*
G36*
G01X71000Y3950D02*
G01X71000Y5750D01*
G01X69000Y5750D01*
G01X69000Y3950D01*
G01X71000Y3950D01*
G37*
G36*
G01X71000Y7350D02*
G01X71000Y9150D01*
G01X69000Y9150D01*
G01X69000Y7350D01*
G01X71000Y7350D01*
G37*
G36*
G01X52000Y3950D02*
G01X52000Y5750D01*
G01X50000Y5750D01*
G01X50000Y3950D01*
G01X52000Y3950D01*
G37*
G36*
G01X52000Y7350D02*
G01X52000Y9150D01*
G01X50000Y9150D01*
G01X50000Y7350D01*
G01X52000Y7350D01*
G37*
G36*
G01X33000Y3950D02*
G01X33000Y5750D01*
G01X31000Y5750D01*
G01X31000Y3950D01*
G01X33000Y3950D01*
G37*
G36*
G01X33000Y7350D02*
G01X33000Y9150D01*
G01X31000Y9150D01*
G01X31000Y7350D01*
G01X33000Y7350D01*
G37*
G36*
G01X14000Y3950D02*
G01X14000Y5750D01*
G01X12000Y5750D01*
G01X12000Y3950D01*
G01X14000Y3950D01*
G37*
G36*
G01X14000Y7350D02*
G01X14000Y9150D01*
G01X12000Y9150D01*
G01X12000Y7350D01*
G01X14000Y7350D01*
G37*
G36*
G01X71000Y22950D02*
G01X71000Y24750D01*
G01X69000Y24750D01*
G01X69000Y22950D01*
G01X71000Y22950D01*
G37*
G36*
G01X71000Y26350D02*
G01X71000Y28150D01*
G01X69000Y28150D01*
G01X69000Y26350D01*
G01X71000Y26350D01*
G37*
G36*
G01X52000Y22950D02*
G01X52000Y24750D01*
G01X50000Y24750D01*
G01X50000Y22950D01*
G01X52000Y22950D01*
G37*
G36*
G01X52000Y26350D02*
G01X52000Y28150D01*
G01X50000Y28150D01*
G01X50000Y26350D01*
G01X52000Y26350D01*
G37*
G36*
G01X33000Y22950D02*
G01X33000Y24750D01*
G01X31000Y24750D01*
G01X31000Y22950D01*
G01X33000Y22950D01*
G37*
G36*
G01X33000Y26350D02*
G01X33000Y28150D01*
G01X31000Y28150D01*
G01X31000Y26350D01*
G01X33000Y26350D01*
G37*
G36*
G01X14000Y22950D02*
G01X14000Y24750D01*
G01X12000Y24750D01*
G01X12000Y22950D01*
G01X14000Y22950D01*
G37*
G36*
G01X14000Y26350D02*
G01X14000Y28150D01*
G01X12000Y28150D01*
G01X12000Y26350D01*
G01X14000Y26350D01*
G37*
G36*
G01X71000Y41950D02*
G01X71000Y43750D01*
G01X69000Y43750D01*
G01X69000Y41950D01*
G01X71000Y41950D01*
G37*
G36*
G01X71000Y45350D02*
G01X71000Y47150D01*
G01X69000Y47150D01*
G01X69000Y45350D01*
G01X71000Y45350D01*
G37*
G36*
G01X52000Y41950D02*
G01X52000Y43750D01*
G01X50000Y43750D01*
G01X50000Y41950D01*
G01X52000Y41950D01*
G37*
G36*
G01X52000Y45350D02*
G01X52000Y47150D01*
G01X50000Y47150D01*
G01X50000Y45350D01*
G01X52000Y45350D01*
G37*
G36*
G01X33000Y41950D02*
G01X33000Y43750D01*
G01X31000Y43750D01*
G01X31000Y41950D01*
G01X33000Y41950D01*
G37*
G36*
G01X33000Y45350D02*
G01X33000Y47150D01*
G01X31000Y47150D01*
G01X31000Y45350D01*
G01X33000Y45350D01*
G37*
G36*
G01X14000Y41950D02*
G01X14000Y43750D01*
G01X12000Y43750D01*
G01X12000Y41950D01*
G01X14000Y41950D01*
G37*
G36*
G01X14000Y45350D02*
G01X14000Y47150D01*
G01X12000Y47150D01*
G01X12000Y45350D01*
G01X14000Y45350D01*
G37*
G54D11*
G01X20941Y44041D02*
G01X22441Y44041D01*
G01X27291Y46581D02*
G01X28791Y46581D01*
G01X39940Y44041D02*
G01X41440Y44041D01*
G01X46290Y46581D02*
G01X47790Y46581D01*
G01X58939Y44041D02*
G01X60440Y44041D01*
G01X65289Y46581D02*
G01X66790Y46581D01*
G01X20941Y25039D02*
G01X22441Y25039D01*
G01X27291Y27579D02*
G01X28791Y27579D01*
G01X39940Y25039D02*
G01X41440Y25039D01*
G01X46290Y27579D02*
G01X47790Y27579D01*
G01X58939Y25039D02*
G01X60440Y25039D01*
G01X65289Y27579D02*
G01X66790Y27579D01*
G01X20941Y6040D02*
G01X22441Y6040D01*
G01X27291Y8580D02*
G01X28791Y8580D01*
G01X39940Y6040D02*
G01X41440Y6040D01*
G01X46290Y8580D02*
G01X47790Y8580D01*
G01X58939Y6040D02*
G01X60440Y6040D01*
G01X65289Y8580D02*
G01X66790Y8580D01*
G01X1939Y44041D02*
G01X3439Y44041D01*
G01X8289Y46581D02*
G01X9789Y46581D01*
G01X1939Y25039D02*
G01X3439Y25039D01*
G01X8289Y27579D02*
G01X9789Y27579D01*
G01X1939Y6040D02*
G01X3439Y6040D01*
G01X8289Y8580D02*
G01X9789Y8580D01*
M00*
M02*
